<svg width="406" height="415" viewBox="0 0 406 415" fill="none" xmlns="http://www.w3.org/2000/svg">
<path d="M402.252 208.553C400.197 208.386 397.482 211.716 394.858 215.774C389.946 223.488 384.741 231.403 378.692 238.691C329.023 303.911 227.689 304.706 172.974 251.032C114.7 194.856 124.04 91.8926 182.799 39.5825C201.38 21.9116 222.233 12.0135 238.784 38.0347C254.023 60.0481 268.669 82.5635 285.119 103.782C296.348 120.223 314.018 128.381 334.036 127.536C357.521 127.235 385.05 133.552 383.162 100.628C383.212 75.6691 383.287 51.6979 383.137 26.7393C383.571 8.5412 376.445 -0.00144476 357.722 0.433636C317.46 0.291398 279.547 0.182629 240.413 0.2914C179.724 -1.7585 120.773 6.31559 72.5834 46.7363C-37.6906 135.811 -22.2928 342.332 118.643 397.336C168.98 419.115 229.134 421.399 279.989 400.582C351.748 371.315 406.58 297.125 405.995 218.493C405.937 215.355 405.402 209.381 402.603 208.595L402.252 208.553Z" fill="white"/>
</svg>
