<svg width="24" height="25" viewBox="0 0 24 25" fill="none" xmlns="http://www.w3.org/2000/svg">
<path d="M12 21.6603C16.9706 21.6603 21 17.5589 21 12.4996C21 7.44026 16.9706 3.33887 12 3.33887C7.02944 3.33887 3 7.44026 3 12.4996C3 17.5589 7.02944 21.6603 12 21.6603Z" stroke="white" stroke-width="1.5" stroke-linecap="round" stroke-linejoin="round"/>
<path d="M3.5127 9.4458H20.4875" stroke="white" stroke-width="1.5" stroke-linecap="round" stroke-linejoin="round"/>
<path d="M3.5127 15.5532H20.4874" stroke="white" stroke-width="1.5" stroke-linecap="round" stroke-linejoin="round"/>
<path d="M12 21.4141C14.0711 21.4141 15.75 17.4228 15.75 12.4993C15.75 7.57576 14.0711 3.58447 12 3.58447C9.92893 3.58447 8.25 7.57576 8.25 12.4993C8.25 17.4228 9.92893 21.4141 12 21.4141Z" stroke="white" stroke-width="1.5" stroke-linecap="round" stroke-linejoin="round"/>
</svg>
