<svg width="561" height="167" viewBox="0 0 561 167" fill="none" xmlns="http://www.w3.org/2000/svg">
<path d="M55.976 4.87439C70.1893 4.87439 81.9973 8.48239 91.4 15.6984C100.803 22.9144 107.144 32.6997 110.424 45.0544H90.58C87.8467 38.0571 83.4733 32.5357 77.46 28.4904C71.556 24.3357 64.2853 22.2584 55.648 22.2584C48.76 22.2584 42.5827 23.9531 37.116 27.3424C31.7587 30.7317 27.4947 35.5971 24.324 41.9384C21.2627 48.1704 19.732 55.4957 19.732 63.9144C19.732 72.2237 21.2627 79.5491 24.324 85.8904C27.4947 92.1224 31.7587 96.9331 37.116 100.322C42.5827 103.712 48.76 105.406 55.648 105.406C64.2853 105.406 71.556 103.384 77.46 99.3384C83.4733 95.1837 87.8467 89.6624 90.58 82.7744H110.424C107.144 95.1291 100.803 104.914 91.4 112.13C81.9973 119.237 70.1893 122.79 55.976 122.79C45.0427 122.79 35.3667 120.33 26.948 115.41C18.5293 110.381 12.024 103.438 7.432 94.5824C2.84 85.6171 0.544001 75.3944 0.544001 63.9144C0.544001 52.4344 2.84 42.2664 7.432 33.4104C12.024 24.4451 18.5293 17.4477 26.948 12.4184C35.3667 7.38905 45.0427 4.87439 55.976 4.87439ZM175.654 54.5664V70.3104H108.086V54.5664H175.654ZM214.335 21.1104V56.2064H256.975V70.6384H214.335V106.554H261.895V121.806H195.639V6.02239H261.895V21.1104H214.335ZM308.085 30.2944C316.285 30.2944 323.282 32.3171 329.077 36.3624C334.872 40.4077 338.917 45.7651 341.213 52.4344V0.446395H360.073V121.806H341.213V100.814C338.917 107.484 334.872 112.841 329.077 116.886C323.282 120.932 316.285 122.954 308.085 122.954C300.213 122.954 293.161 121.096 286.929 117.378C280.806 113.661 275.996 108.304 272.497 101.306C268.998 94.3091 267.249 86.0544 267.249 76.5424C267.249 67.1397 268.998 58.9397 272.497 51.9424C275.996 44.9451 280.806 39.5877 286.929 35.8704C293.161 32.1531 300.213 30.2944 308.085 30.2944ZM313.825 46.6944C305.516 46.6944 298.846 49.3731 293.817 54.7304C288.897 59.9784 286.437 67.2491 286.437 76.5424C286.437 85.8357 288.897 93.1611 293.817 98.5184C298.846 103.766 305.516 106.39 313.825 106.39C319.073 106.39 323.774 105.188 327.929 102.782C332.084 100.268 335.364 96.7691 337.769 92.2864C340.174 87.8037 341.377 82.5557 341.377 76.5424C341.377 70.6384 340.174 65.4451 337.769 60.9624C335.364 56.3704 332.084 52.8717 327.929 50.4664C323.774 47.9517 319.073 46.6944 313.825 46.6944ZM410.553 30.2944C418.753 30.2944 425.75 32.3171 431.545 36.3624C437.34 40.4077 441.44 45.7651 443.845 52.4344V31.4424H462.541V122.79C462.541 131.209 460.792 138.644 457.293 145.094C453.904 151.654 448.984 156.793 442.533 160.51C436.082 164.228 428.429 166.086 419.573 166.086C406.89 166.086 396.613 163.08 388.741 157.066C380.978 151.053 376.113 142.908 374.145 132.63H392.677C394.208 137.988 397.16 142.142 401.533 145.094C405.906 148.156 411.482 149.686 418.261 149.686C425.696 149.686 431.818 147.39 436.629 142.798C441.44 138.206 443.845 131.537 443.845 122.79V100.814C441.44 107.484 437.34 112.841 431.545 116.886C425.75 120.932 418.753 122.954 410.553 122.954C402.681 122.954 395.629 121.096 389.397 117.378C383.274 113.661 378.464 108.304 374.965 101.306C371.466 94.3091 369.717 86.0544 369.717 76.5424C369.717 67.1397 371.466 58.9397 374.965 51.9424C378.464 44.9451 383.274 39.5877 389.397 35.8704C395.629 32.1531 402.681 30.2944 410.553 30.2944ZM416.293 46.6944C407.984 46.6944 401.314 49.3731 396.285 54.7304C391.365 59.9784 388.905 67.2491 388.905 76.5424C388.905 85.8357 391.365 93.1611 396.285 98.5184C401.314 103.766 407.984 106.39 416.293 106.39C421.541 106.39 426.242 105.188 430.397 102.782C434.552 100.268 437.832 96.7691 440.237 92.2864C442.642 87.8037 443.845 82.5557 443.845 76.5424C443.845 70.6384 442.642 65.4451 440.237 60.9624C437.832 56.3704 434.552 52.8717 430.397 50.4664C426.242 47.9517 421.541 46.6944 416.293 46.6944ZM560.745 72.2784C560.745 75.3397 560.526 78.0184 560.089 80.3144H490.553C490.881 89.6077 493.45 96.4957 498.261 100.978C503.072 105.461 509.03 107.702 516.137 107.702C522.369 107.702 527.617 106.117 531.881 102.946C536.254 99.7757 538.933 95.5664 539.917 90.3184H559.925C558.722 96.6597 556.208 102.29 552.381 107.21C548.554 112.13 543.58 116.012 537.457 118.854C531.334 121.588 524.501 122.954 516.957 122.954C508.21 122.954 500.448 121.096 493.669 117.378C487 113.661 481.752 108.304 477.925 101.306C474.098 94.3091 472.185 86.0544 472.185 76.5424C472.185 67.1397 474.098 58.9397 477.925 51.9424C481.752 44.9451 487 39.5877 493.669 35.8704C500.448 32.1531 508.21 30.2944 516.957 30.2944C525.813 30.2944 533.521 32.1531 540.081 35.8704C546.75 39.4784 551.834 44.5077 555.333 50.9584C558.941 57.2997 560.745 64.4064 560.745 72.2784ZM541.885 71.7864C542.104 65.8824 541.065 60.9624 538.769 57.0264C536.582 52.9811 533.521 50.0291 529.585 48.1704C525.758 46.2024 521.549 45.2184 516.957 45.2184C509.632 45.2184 503.509 47.4597 498.589 51.9424C493.669 56.4251 490.99 63.0397 490.553 71.7864H541.885Z" fill="url(#paint0_linear_566_1799)"/>
<defs>
<linearGradient id="paint0_linear_566_1799" x1="2.32045" y1="64.8065" x2="585.899" y2="32.6903" gradientUnits="userSpaceOnUse">
<stop stop-color="white"/>
<stop offset="1" stop-color="white" stop-opacity="0"/>
</linearGradient>
</defs>
</svg>
