<svg width="72" height="72" viewBox="0 0 72 72" fill="none" xmlns="http://www.w3.org/2000/svg">
<g id="Star-01 1">
<g id="Group">
<path id="Vector" d="M45.7707 26.41L45.6856 26.4943L36.1641 36.0166H36.0273V2.24829L43.229 20.107L45.7332 26.3168L45.7625 26.3896L45.7693 26.4073L45.7707 26.41Z" fill="url(#paint0_linear_566_1739)"/>
<path id="Vector_2" d="M36.1641 36.0166L36.0273 36.154V36.0166H36.1641Z" fill="url(#paint1_linear_566_1739)"/>
<path id="Vector_3" d="M36.0607 2.24829V36.154L35.924 36.0166L26.4038 26.4964L26.3174 26.41L26.3269 26.3862L26.333 26.3698L26.3718 26.2746L28.8923 20.0233L36.0607 2.24829Z" fill="url(#paint2_linear_566_1739)"/>
<path id="Vector_4" d="M36.0607 35.8457V69.7507L28.8746 51.9322L26.3718 45.7251L26.35 45.672L26.3303 45.6224L26.3201 45.5972L26.3174 45.5897L35.924 35.9831L36.0607 35.8457Z" fill="url(#paint3_linear_566_1739)"/>
<path id="Vector_5" d="M45.7707 45.5897L45.7434 45.6564L45.7332 45.6829L45.7237 45.706L43.1841 52.0036L36.0273 69.7507V35.8457L36.1641 35.9831L45.6747 45.4938L45.7707 45.5897Z" fill="url(#paint4_linear_566_1739)"/>
<path id="Vector_6" d="M69.7868 35.9832L51.9989 43.1563L45.7599 45.672L45.734 45.6829L45.7102 45.6925L45.632 45.7244L45.6252 45.7265L36.0281 36.1294L35.8818 35.9832H69.7868Z" fill="url(#paint5_linear_566_1739)"/>
<path id="Vector_7" d="M35.8818 36.0166L36.0281 35.8704V36.0166H35.8818Z" fill="url(#paint6_linear_566_1739)"/>
<path id="Vector_8" d="M69.7861 36.0167H36.1641L45.6856 26.4945L45.7706 26.4101L45.7693 26.4074L45.7625 26.3897L45.7332 26.3169L45.8053 26.3461L45.855 26.3659L51.9478 28.8231L69.7861 36.0167Z" fill="url(#paint7_linear_566_1739)"/>
<path id="Vector_9" d="M36.1189 36.0165H2.21387L19.9821 28.8509L26.2606 26.3195L26.2762 26.3127L26.3722 26.2746L26.3749 26.2732L26.4347 26.3324L36.061 35.9587L36.1189 36.0165Z" fill="url(#paint8_linear_566_1739)"/>
<path id="Vector_10" d="M36.1189 35.9832L36.061 36.041L26.4919 45.6095L26.3749 45.7265L26.3722 45.7251L26.3191 45.704L26.2694 45.6843L19.9814 43.1481L2.21387 35.9832H36.1189Z" fill="url(#paint9_linear_566_1739)"/>
<path id="Vector_11" d="M55.5457 16.6067L52.1592 28.9052L51.9483 28.8229L45.8555 26.3657L55.4913 16.7305L55.3954 16.7564L55.5457 16.6067Z" fill="url(#paint10_linear_566_1739)"/>
<path id="Vector_12" d="M45.8554 26.3659L51.9482 28.8231L45.8016 26.4196L45.7696 26.4074L45.752 26.3999L55.3953 16.7566L55.4912 16.7307L45.8554 26.3659Z" fill="url(#paint11_linear_566_1739)"/>
<path id="Vector_13" d="M55.3954 16.7563L45.8058 26.3459L45.7337 26.3167L43.2295 20.1068L55.3954 16.7563Z" fill="url(#paint12_linear_566_1739)"/>
<path id="Vector_14" d="M28.8929 20.0232L26.3724 26.2745L26.2765 26.3126L16.6025 16.6387L28.8929 20.0232Z" fill="url(#paint13_linear_566_1739)"/>
<path id="Vector_15" d="M28.901 20.0252L26.4349 26.3323L26.3961 26.4323L26.2764 26.3126L26.3723 26.2745L28.8928 20.0232L28.901 20.0252Z" fill="url(#paint14_linear_566_1739)"/>
<path id="Vector_16" d="M26.2604 26.3194L19.9819 28.8508L16.6348 16.6931L26.2604 26.3194Z" fill="url(#paint15_linear_566_1739)"/>
<path id="Vector_17" d="M16.6576 55.2964L16.7529 55.2699L16.6025 55.4202L19.9816 43.1482L26.2697 45.6844L16.6576 55.2964Z" fill="url(#paint16_linear_566_1739)"/>
<path id="Vector_18" d="M26.3958 45.6271L26.3502 45.672L26.3189 45.704L16.7525 55.2697L16.6572 55.2963L26.2692 45.6842L26.3203 45.5972L26.3454 45.6074L26.3958 45.6271Z" fill="url(#paint17_linear_566_1739)"/>
<path id="Vector_19" d="M28.8753 51.9323L16.7529 55.2699L26.3194 45.7041L26.3724 45.7252L28.8753 51.9323Z" fill="url(#paint18_linear_566_1739)"/>
<path id="Vector_20" d="M55.4756 55.3881L43.1846 52.0036L45.7241 45.7061L55.3518 55.333L55.3253 55.2378L55.4756 55.3881Z" fill="url(#paint19_linear_566_1739)"/>
<path id="Vector_21" d="M55.352 55.333L45.7244 45.706L45.6318 45.7244L45.6625 45.6441L45.6822 45.5945L45.7441 45.6564L55.3255 55.2378L55.352 55.333Z" fill="url(#paint20_linear_566_1739)"/>
<path id="Vector_22" d="M55.3255 55.2378L45.7598 45.672L51.9988 43.1562L55.3255 55.2378Z" fill="url(#paint21_linear_566_1739)"/>
</g>
</g>
<defs>
<linearGradient id="paint0_linear_566_1739" x1="31.6383" y1="17.9021" x2="46.9522" y2="22.1957" gradientUnits="userSpaceOnUse">
<stop stop-color="white"/>
<stop offset="1" stop-color="white" stop-opacity="0"/>
</linearGradient>
<linearGradient id="paint1_linear_566_1739" x1="36.0716" y1="36.0065" x2="36.0983" y2="36.094" gradientUnits="userSpaceOnUse">
<stop stop-color="white"/>
<stop offset="1" stop-color="white" stop-opacity="0"/>
</linearGradient>
<linearGradient id="paint2_linear_566_1739" x1="26.3172" y1="19.2011" x2="36.0607" y2="19.2011" gradientUnits="userSpaceOnUse">
<stop stop-color="white"/>
<stop offset="1" stop-color="white" stop-opacity="0"/>
</linearGradient>
<linearGradient id="paint3_linear_566_1739" x1="31.1889" y1="72.9462" x2="31.1889" y2="38.317" gradientUnits="userSpaceOnUse">
<stop stop-color="white"/>
<stop offset="1" stop-color="white" stop-opacity="0"/>
</linearGradient>
<linearGradient id="paint4_linear_566_1739" x1="40.8989" y1="36.0558" x2="40.8989" y2="68.2628" gradientUnits="userSpaceOnUse">
<stop stop-color="white"/>
<stop offset="1" stop-color="white" stop-opacity="0"/>
</linearGradient>
<linearGradient id="paint5_linear_566_1739" x1="71.8116" y1="36.1325" x2="40.4271" y2="40.9044" gradientUnits="userSpaceOnUse">
<stop stop-color="white"/>
<stop offset="1" stop-color="white" stop-opacity="0"/>
</linearGradient>
<linearGradient id="paint6_linear_566_1739" x1="35.9105" y1="35.9312" x2="35.9952" y2="35.9549" gradientUnits="userSpaceOnUse">
<stop stop-color="white"/>
<stop offset="1" stop-color="white" stop-opacity="0"/>
</linearGradient>
<linearGradient id="paint7_linear_566_1739" x1="38.8157" y1="30.5689" x2="58.2898" y2="36.0289" gradientUnits="userSpaceOnUse">
<stop stop-color="white"/>
<stop offset="1" stop-color="white" stop-opacity="0"/>
</linearGradient>
<linearGradient id="paint8_linear_566_1739" x1="3.18557" y1="31.1448" x2="35.3042" y2="31.1448" gradientUnits="userSpaceOnUse">
<stop stop-color="white"/>
<stop offset="1" stop-color="white" stop-opacity="0"/>
</linearGradient>
<linearGradient id="paint9_linear_566_1739" x1="30.7736" y1="40.7546" x2="2.14219" y2="34.698" gradientUnits="userSpaceOnUse">
<stop stop-color="white"/>
<stop offset="1" stop-color="white" stop-opacity="0"/>
</linearGradient>
<linearGradient id="paint10_linear_566_1739" x1="45.8556" y1="22.756" x2="55.5455" y2="22.756" gradientUnits="userSpaceOnUse">
<stop stop-color="white"/>
<stop offset="1" stop-color="white" stop-opacity="0"/>
</linearGradient>
<linearGradient id="paint11_linear_566_1739" x1="45.752" y1="22.7769" x2="55.491" y2="22.7769" gradientUnits="userSpaceOnUse">
<stop stop-color="white"/>
<stop offset="1" stop-color="white" stop-opacity="0"/>
</linearGradient>
<linearGradient id="paint12_linear_566_1739" x1="43.2292" y1="21.5514" x2="55.3955" y2="21.5514" gradientUnits="userSpaceOnUse">
<stop stop-color="white"/>
<stop offset="1" stop-color="white" stop-opacity="0"/>
</linearGradient>
<linearGradient id="paint13_linear_566_1739" x1="16.6026" y1="21.4758" x2="28.8932" y2="21.4758" gradientUnits="userSpaceOnUse">
<stop stop-color="white"/>
<stop offset="1" stop-color="white" stop-opacity="0"/>
</linearGradient>
<linearGradient id="paint14_linear_566_1739" x1="26.2765" y1="23.2278" x2="28.9012" y2="23.2278" gradientUnits="userSpaceOnUse">
<stop stop-color="white"/>
<stop offset="1" stop-color="white" stop-opacity="0"/>
</linearGradient>
<linearGradient id="paint15_linear_566_1739" x1="16.6344" y1="22.7722" x2="26.2602" y2="22.7722" gradientUnits="userSpaceOnUse">
<stop stop-color="white"/>
<stop offset="1" stop-color="white" stop-opacity="0"/>
</linearGradient>
<linearGradient id="paint16_linear_566_1739" x1="16.6026" y1="49.2841" x2="26.2695" y2="49.2841" gradientUnits="userSpaceOnUse">
<stop stop-color="white"/>
<stop offset="1" stop-color="white" stop-opacity="0"/>
</linearGradient>
<linearGradient id="paint17_linear_566_1739" x1="16.6569" y1="50.4467" x2="26.3956" y2="50.4467" gradientUnits="userSpaceOnUse">
<stop stop-color="white"/>
<stop offset="1" stop-color="white" stop-opacity="0"/>
</linearGradient>
<linearGradient id="paint18_linear_566_1739" x1="16.7527" y1="50.4869" x2="28.8753" y2="50.4869" gradientUnits="userSpaceOnUse">
<stop stop-color="white"/>
<stop offset="1" stop-color="white" stop-opacity="0"/>
</linearGradient>
<linearGradient id="paint19_linear_566_1739" x1="43.1845" y1="50.5471" x2="55.4753" y2="50.5471" gradientUnits="userSpaceOnUse">
<stop stop-color="white"/>
<stop offset="1" stop-color="white" stop-opacity="0"/>
</linearGradient>
<linearGradient id="paint20_linear_566_1739" x1="45.6315" y1="50.464" x2="55.3518" y2="50.464" gradientUnits="userSpaceOnUse">
<stop stop-color="white"/>
<stop offset="1" stop-color="white" stop-opacity="0"/>
</linearGradient>
<linearGradient id="paint21_linear_566_1739" x1="45.7599" y1="49.1971" x2="55.3255" y2="49.1971" gradientUnits="userSpaceOnUse">
<stop stop-color="white"/>
<stop offset="1" stop-color="white" stop-opacity="0"/>
</linearGradient>
</defs>
</svg>
